<svg width="36" height="36" viewBox="0 0 36 36" fill="none" xmlns="http://www.w3.org/2000/svg">
<path d="M30.4944 24.7507L23.7422 17.9992L30.4922 11.2485C30.5587 11.182 30.6115 11.1031 30.6475 11.0162C30.6835 10.9293 30.702 10.8362 30.702 10.7422C30.702 10.6481 30.6835 10.555 30.6475 10.4682C30.6115 10.3813 30.5587 10.3023 30.4922 10.2358L25.7636 5.50616C25.6293 5.37184 25.4471 5.29639 25.2571 5.29639C25.0671 5.29639 24.8849 5.37184 24.7506 5.50616L17.9995 12.2569L11.2495 5.50616C10.981 5.23724 10.5054 5.23724 10.2365 5.50616L5.5068 10.2351C5.37265 10.3696 5.29732 10.5517 5.29732 10.7416C5.29732 10.9316 5.37265 11.1137 5.5068 11.2482L12.2579 17.9992L5.50572 24.751C5.37166 24.8855 5.29639 25.0677 5.29639 25.2576C5.29639 25.4475 5.37166 25.6296 5.50572 25.7641L10.2347 30.4934C10.3012 30.56 10.3801 30.6128 10.467 30.6489C10.5539 30.6849 10.6471 30.7035 10.7412 30.7035C10.8353 30.7035 10.9285 30.6849 11.0154 30.6489C11.1023 30.6128 11.1812 30.56 11.2477 30.4934L17.9995 23.7416L24.7517 30.493C24.8917 30.6327 25.0742 30.7029 25.2582 30.7029C25.4422 30.7029 25.625 30.6327 25.7651 30.493L30.4948 25.7637C30.629 25.6293 30.7044 25.4471 30.7044 25.2571C30.7043 25.0672 30.6288 24.885 30.4944 24.7507Z" fill="white"/>
</svg>
