<svg width="28" height="28" viewBox="0 0 28 28" fill="none" xmlns="http://www.w3.org/2000/svg">
<path d="M1.625 11.7502C1.32663 11.7502 1.04048 11.6317 0.829505 11.4207C0.618527 11.2097 0.5 10.9236 0.5 10.6252V1.62744C0.5 1.32907 0.618527 1.04292 0.829505 0.831946C1.04048 0.620968 1.32663 0.502441 1.625 0.502441H10.625C10.9234 0.502441 11.2095 0.620968 11.4205 0.831946C11.6315 1.04292 11.75 1.32907 11.75 1.62744V10.6252C11.75 10.9236 11.6315 11.2097 11.4205 11.4207C11.2095 11.6317 10.9234 11.7502 10.625 11.7502H1.625ZM17.375 11.7502C17.0766 11.7502 16.7905 11.6317 16.5795 11.4207C16.3685 11.2097 16.25 10.9236 16.25 10.6252V1.62744C16.25 1.32907 16.3685 1.04292 16.5795 0.831946C16.7905 0.620968 17.0766 0.502441 17.375 0.502441H26.3727C26.6711 0.502441 26.9573 0.620968 27.1682 0.831946C27.3792 1.04292 27.4977 1.32907 27.4977 1.62744V10.6252C27.4977 10.9236 27.3792 11.2097 27.1682 11.4207C26.9573 11.6317 26.6711 11.7502 26.3727 11.7502H17.375ZM1.625 27.5002C1.32663 27.5002 1.04048 27.3817 0.829505 27.1707C0.618527 26.9597 0.5 26.6736 0.5 26.3752V17.3752C0.5 17.0768 0.618527 16.7907 0.829505 16.5797C1.04048 16.3687 1.32663 16.2502 1.625 16.2502H10.625C10.9234 16.2502 11.2095 16.3687 11.4205 16.5797C11.6315 16.7907 11.75 17.0768 11.75 17.3752V26.3752C11.75 26.6736 11.6315 26.9597 11.4205 27.1707C11.2095 27.3817 10.9234 27.5002 10.625 27.5002H1.625ZM17.375 27.5002C17.0766 27.5002 16.7905 27.3817 16.5795 27.1707C16.3685 26.9597 16.25 26.6736 16.25 26.3752V17.3752C16.25 17.0768 16.3685 16.7907 16.5795 16.5797C16.7905 16.3687 17.0766 16.2502 17.375 16.2502H26.3727C26.6711 16.2502 26.9573 16.3687 27.1682 16.5797C27.3792 16.7907 27.4977 17.0768 27.4977 17.3752V26.3752C27.4977 26.6736 27.3792 26.9597 27.1682 27.1707C26.9573 27.3817 26.6711 27.5002 26.3727 27.5002H17.375Z" fill="white"/>
</svg>
